<svg width="231" height="60" viewBox="0 0 231 60" fill="none" xmlns="http://www.w3.org/2000/svg">
<path d="M44.2263 4.16702L35.8013 9.69451C35.4634 9.91617 35.5144 10.4263 35.8895 10.5767L38.041 11.4393C38.1921 11.4999 38.3631 11.4831 38.4996 11.3945L44.4702 7.5142C44.6262 7.41282 44.8256 7.40643 44.9877 7.49763L53.8281 12.4691C53.9856 12.5576 54.0831 12.7242 54.0831 12.9049V23.46C54.0831 23.6322 53.9944 23.7924 53.8484 23.8838L51.6436 25.2646C51.4977 25.356 51.409 25.5161 51.409 25.6883V28.0349C51.409 28.4404 51.8662 28.6772 52.1974 28.4434L56.7886 25.202C56.9213 25.1083 57.0002 24.956 57.0002 24.7936V11.3495C57.0002 11.1691 56.9029 11.0026 56.7457 10.914L44.7461 4.14952C44.5832 4.05768 44.3826 4.06444 44.2263 4.16702Z" fill="white"/>
<path d="M43.8341 48.7475L43.5873 38.6742C43.5774 38.2702 43.1173 38.0442 42.7915 38.2834L40.9231 39.6553C40.7919 39.7516 40.7158 39.9057 40.7191 40.0684L40.8626 47.1877C40.8664 47.3737 40.7665 47.5464 40.6035 47.636L31.7142 52.5196C31.5559 52.6066 31.363 52.6014 31.2095 52.506L22.2451 46.9338C22.0988 46.8429 22.0096 46.6831 22.0091 46.5108L22.0003 43.9094C21.9997 43.7371 21.9105 43.5773 21.7643 43.4864L19.7713 42.2476C19.4269 42.0336 18.9844 42.2968 19.0082 42.7015L19.3373 48.3119C19.3468 48.4741 19.4345 48.6216 19.5725 48.7073L30.9905 55.8046C31.1438 55.8999 31.3365 55.9052 31.4948 55.8184L43.5746 49.1982C43.7386 49.1084 43.8387 48.9345 43.8341 48.7475Z" fill="white"/>
<path d="M6.32604 25.8447L15.2395 30.544C15.597 30.7324 16.0187 30.441 15.9689 30.04L15.683 27.7397C15.6629 27.5782 15.5655 27.4366 15.4219 27.36L9.13744 24.0119C8.97324 23.9244 8.87119 23.753 8.87255 23.5669L8.94664 13.4248C8.94796 13.2442 9.04663 13.0783 9.20474 12.9909L18.4424 7.88445C18.5932 7.80113 18.7762 7.80125 18.9268 7.88477L21.2019 9.14639C21.3525 9.22991 21.5355 9.23003 21.6863 9.14671L23.74 8.01144C24.0948 7.8153 24.081 7.3006 23.7161 7.12386L18.6581 4.67387C18.5119 4.60305 18.3405 4.60767 18.1983 4.68626L6.43223 11.1903C6.27429 11.2776 6.17565 11.4433 6.17414 11.6237L6.05924 25.3982C6.05768 25.5852 6.16061 25.7574 6.32604 25.8447Z" fill="white"/>
<path d="M31.6789 5.98027L46.4382 14.4996L31.5903 23.2624L16.8638 14.4996L31.6789 5.98027Z" fill="white"/>
<path d="M28.9044 27.5649L28.9044 44.9257L13.9087 36.5281L13.9087 19.3677L28.9044 27.5649Z" fill="white"/>
<path d="M49.2548 36.7286L49.2548 19.3677L34.2592 28.0088L34.2591 45.0475L49.2548 36.7286Z" fill="white"/>
<path d="M75.268 49.464H72.256L71.788 51H70.192L73.084 42.6H74.44L77.332 51H75.736L75.268 49.464ZM74.896 48.252L73.768 44.58L72.628 48.252H74.896ZM81.2354 42.6H83.9234C84.8914 42.6 85.6234 42.824 86.1194 43.272C86.6234 43.712 86.8754 44.364 86.8754 45.228C86.8754 46.148 86.6154 46.848 86.0954 47.328C85.5834 47.8 84.8394 48.036 83.8634 48.036H82.7474V51H81.2354V42.6ZM83.9954 46.812C84.4514 46.812 84.7994 46.684 85.0394 46.428C85.2794 46.164 85.3994 45.784 85.3994 45.288C85.3994 44.808 85.2714 44.444 85.0154 44.196C84.7674 43.948 84.3994 43.824 83.9114 43.824H82.7474V46.812H83.9954ZM88.0869 46.464C88.0869 45.784 88.0749 45.296 88.0509 45H89.3349C89.3669 45.312 89.3829 45.664 89.3829 46.056V46.176H89.4189C89.5709 45.776 89.8309 45.46 90.1989 45.228C90.5669 44.996 90.9909 44.88 91.4709 44.88C91.6149 44.88 91.7349 44.892 91.8309 44.916V45.996C91.7509 45.98 91.6429 45.972 91.5069 45.972C91.1309 45.972 90.7829 46.076 90.4629 46.284C90.1509 46.484 89.9029 46.76 89.7189 47.112C89.5349 47.464 89.4429 47.844 89.4429 48.252V51H88.0869V46.464ZM95.2758 51.12C94.3318 51.12 93.5878 50.844 93.0438 50.292C92.5078 49.732 92.2397 48.968 92.2397 48C92.2397 47.032 92.5078 46.272 93.0438 45.72C93.5878 45.16 94.3318 44.88 95.2758 44.88C96.2198 44.88 96.9598 45.16 97.4958 45.72C98.0398 46.272 98.3118 47.032 98.3118 48C98.3118 48.968 98.0398 49.732 97.4958 50.292C96.9598 50.844 96.2198 51.12 95.2758 51.12ZM95.2758 50.1C95.7958 50.1 96.2038 49.916 96.4998 49.548C96.7958 49.172 96.9438 48.656 96.9438 48C96.9438 47.344 96.7958 46.832 96.4998 46.464C96.2038 46.088 95.7958 45.9 95.2758 45.9C94.7558 45.9 94.3478 46.088 94.0518 46.464C93.7558 46.832 93.6077 47.344 93.6077 48C93.6077 48.656 93.7558 49.172 94.0518 49.548C94.3478 49.916 94.7558 50.1 95.2758 50.1ZM101.591 51.12C100.807 51.12 100.191 50.832 99.7429 50.256C99.2949 49.68 99.0709 48.892 99.0709 47.892C99.0709 47.284 99.1749 46.756 99.3829 46.308C99.5909 45.852 99.8869 45.5 100.271 45.252C100.655 45.004 101.107 44.88 101.627 44.88C102.339 44.88 102.899 45.144 103.307 45.672H103.331V42.096H104.687V49.428C104.687 50.236 104.699 50.76 104.723 51H103.451C103.435 50.84 103.427 50.556 103.427 50.148H103.403C103.219 50.436 102.959 50.672 102.623 50.856C102.295 51.032 101.951 51.12 101.591 51.12ZM101.843 50.064C102.291 50.064 102.647 49.932 102.911 49.668C103.183 49.404 103.319 49.048 103.319 48.6V47.412C103.319 46.972 103.179 46.612 102.899 46.332C102.627 46.044 102.275 45.9 101.843 45.9C101.387 45.9 101.035 46.076 100.787 46.428C100.547 46.78 100.427 47.276 100.427 47.916C100.427 48.596 100.551 49.124 100.799 49.5C101.047 49.876 101.395 50.064 101.843 50.064ZM108.068 51.12C107.38 51.12 106.86 50.892 106.508 50.436C106.156 49.98 105.98 49.304 105.98 48.408V45H107.336V48.42C107.336 48.964 107.428 49.368 107.612 49.632C107.796 49.888 108.08 50.016 108.464 50.016C108.92 50.016 109.292 49.844 109.58 49.5C109.876 49.156 110.024 48.728 110.024 48.216V45H111.38V49.56C111.38 50 111.416 50.48 111.488 51H110.204C110.132 50.616 110.096 50.264 110.096 49.944H110.06C109.9 50.304 109.64 50.592 109.28 50.808C108.928 51.016 108.524 51.12 108.068 51.12ZM115.323 51.12C114.403 51.12 113.683 50.844 113.163 50.292C112.651 49.74 112.395 48.976 112.395 48C112.395 47.024 112.651 46.26 113.163 45.708C113.683 45.156 114.403 44.88 115.323 44.88C115.859 44.88 116.331 44.984 116.739 45.192C117.147 45.392 117.463 45.68 117.687 46.056L116.871 46.776C116.711 46.512 116.499 46.308 116.235 46.164C115.971 46.012 115.687 45.936 115.383 45.936C114.871 45.936 114.471 46.12 114.183 46.488C113.895 46.848 113.751 47.352 113.751 48C113.751 48.64 113.895 49.144 114.183 49.512C114.471 49.88 114.871 50.064 115.383 50.064C115.687 50.064 115.971 49.988 116.235 49.836C116.499 49.684 116.711 49.476 116.871 49.212L117.687 49.932C117.463 50.316 117.147 50.612 116.739 50.82C116.339 51.02 115.867 51.12 115.323 51.12ZM120.967 51.12C120.383 51.12 119.923 50.952 119.587 50.616C119.259 50.272 119.095 49.8 119.095 49.2V46.02H118.015V45H119.095V43.44L120.415 43.044H120.463V45H122.191V46.02H120.463V49.02C120.463 49.38 120.539 49.648 120.691 49.824C120.851 49.992 121.095 50.076 121.423 50.076C121.775 50.076 122.063 50.028 122.287 49.932L122.359 50.892C122.031 51.044 121.567 51.12 120.967 51.12ZM129.026 51.12C128.082 51.12 127.338 50.844 126.794 50.292C126.258 49.732 125.99 48.968 125.99 48C125.99 47.032 126.258 46.272 126.794 45.72C127.338 45.16 128.082 44.88 129.026 44.88C129.97 44.88 130.71 45.16 131.246 45.72C131.79 46.272 132.062 47.032 132.062 48C132.062 48.968 131.79 49.732 131.246 50.292C130.71 50.844 129.97 51.12 129.026 51.12ZM129.026 50.1C129.546 50.1 129.954 49.916 130.25 49.548C130.546 49.172 130.694 48.656 130.694 48C130.694 47.344 130.546 46.832 130.25 46.464C129.954 46.088 129.546 45.9 129.026 45.9C128.506 45.9 128.098 46.088 127.802 46.464C127.506 46.832 127.358 47.344 127.358 48C127.358 48.656 127.506 49.172 127.802 49.548C128.098 49.916 128.506 50.1 129.026 50.1ZM133.565 45.936H132.581V45H133.565V44.268C133.565 43.684 133.745 43.228 134.105 42.9C134.465 42.564 134.957 42.396 135.581 42.396C135.853 42.396 136.109 42.44 136.349 42.528C136.589 42.608 136.789 42.724 136.949 42.876L136.469 43.692C136.373 43.612 136.261 43.548 136.133 43.5C136.005 43.452 135.873 43.428 135.737 43.428C135.489 43.428 135.293 43.512 135.149 43.68C135.005 43.84 134.933 44.064 134.933 44.352V45H136.625V45.936H134.933V51H133.565V45.936ZM147.06 42.6L144.156 51H142.752L139.848 42.6H141.444L143.46 49.044L145.464 42.6H147.06ZM148.822 44.184C148.55 44.184 148.33 44.112 148.162 43.968C148.002 43.816 147.922 43.616 147.922 43.368C147.922 43.112 148.002 42.912 148.162 42.768C148.33 42.616 148.55 42.54 148.822 42.54C149.094 42.54 149.31 42.616 149.47 42.768C149.638 42.912 149.722 43.112 149.722 43.368C149.722 43.616 149.638 43.816 149.47 43.968C149.31 44.112 149.094 44.184 148.822 44.184ZM148.138 45H149.506V51H148.138V45ZM153.498 51.12C152.914 51.12 152.454 50.952 152.118 50.616C151.79 50.272 151.626 49.8 151.626 49.2V46.02H150.546V45H151.626V43.44L152.946 43.044H152.994V45H154.722V46.02H152.994V49.02C152.994 49.38 153.07 49.648 153.222 49.824C153.382 49.992 153.626 50.076 153.954 50.076C154.306 50.076 154.594 50.028 154.818 49.932L154.89 50.892C154.562 51.044 154.098 51.12 153.498 51.12ZM161.289 48.504H157.065C157.201 49.48 157.733 49.968 158.661 49.968C159.013 49.968 159.325 49.904 159.597 49.776C159.869 49.648 160.121 49.448 160.353 49.176L161.097 49.884C160.865 50.26 160.521 50.56 160.065 50.784C159.617 51.008 159.125 51.12 158.589 51.12C157.669 51.12 156.953 50.848 156.441 50.304C155.929 49.752 155.673 48.988 155.673 48.012C155.673 47.036 155.929 46.272 156.441 45.72C156.961 45.16 157.669 44.88 158.565 44.88C159.421 44.88 160.089 45.156 160.569 45.708C161.049 46.26 161.289 47.024 161.289 48V48.504ZM159.981 47.484C159.981 47.012 159.853 46.644 159.597 46.38C159.341 46.116 158.985 45.984 158.529 45.984C158.113 45.984 157.777 46.124 157.521 46.404C157.273 46.676 157.117 47.06 157.053 47.556H159.981V47.484ZM165.876 51.12C165.108 51.12 164.436 50.944 163.86 50.592C163.292 50.24 162.852 49.74 162.54 49.092C162.228 48.436 162.072 47.672 162.072 46.8C162.072 45.92 162.228 45.156 162.54 44.508C162.852 43.86 163.296 43.36 163.872 43.008C164.448 42.656 165.124 42.48 165.9 42.48C166.548 42.48 167.116 42.604 167.604 42.852C168.092 43.1 168.452 43.448 168.684 43.896L167.82 44.676C167.388 44.028 166.752 43.704 165.912 43.704C165.168 43.704 164.596 43.972 164.196 44.508C163.796 45.036 163.596 45.8 163.596 46.8C163.596 47.792 163.792 48.556 164.184 49.092C164.576 49.628 165.136 49.896 165.864 49.896C166.752 49.896 167.404 49.568 167.82 48.912L168.684 49.692C168.452 50.148 168.092 50.5 167.604 50.748C167.116 50.996 166.54 51.12 165.876 51.12ZM169.624 42.096H170.98V45.78C171.164 45.5 171.428 45.28 171.772 45.12C172.116 44.96 172.488 44.88 172.888 44.88C173.576 44.88 174.12 45.108 174.52 45.564C174.928 46.02 175.132 46.648 175.132 47.448V51H173.764V47.52C173.764 47.008 173.656 46.612 173.44 46.332C173.232 46.044 172.936 45.9 172.552 45.9C172.08 45.9 171.7 46.068 171.412 46.404C171.124 46.74 170.98 47.18 170.98 47.724V51H169.624V42.096ZM178.198 51.12C177.806 51.12 177.454 51.04 177.142 50.88C176.838 50.712 176.598 50.484 176.422 50.196C176.254 49.908 176.17 49.584 176.17 49.224C176.17 48.616 176.406 48.148 176.878 47.82C177.358 47.492 178.034 47.328 178.906 47.328H179.95V47.052C179.95 46.692 179.846 46.416 179.638 46.224C179.43 46.032 179.138 45.936 178.762 45.936C178.402 45.936 178.062 46.004 177.742 46.14C177.43 46.268 177.17 46.456 176.962 46.704L176.338 45.9C176.642 45.572 177.01 45.32 177.442 45.144C177.874 44.968 178.33 44.88 178.81 44.88C179.594 44.88 180.206 45.068 180.646 45.444C181.086 45.812 181.306 46.332 181.306 47.004V49.764C181.306 49.932 181.322 50.136 181.354 50.376C181.386 50.608 181.422 50.816 181.462 51H180.25C180.178 50.832 180.126 50.58 180.094 50.244H180.07C179.606 50.828 178.982 51.12 178.198 51.12ZM178.51 50.088C178.918 50.088 179.258 49.98 179.53 49.764C179.81 49.54 179.95 49.268 179.95 48.948V48.252H178.87C178.43 48.252 178.09 48.336 177.85 48.504C177.618 48.672 177.502 48.912 177.502 49.224C177.502 49.496 177.59 49.708 177.766 49.86C177.942 50.012 178.19 50.088 178.51 50.088ZM183.639 44.184C183.367 44.184 183.147 44.112 182.979 43.968C182.819 43.816 182.739 43.616 182.739 43.368C182.739 43.112 182.819 42.912 182.979 42.768C183.147 42.616 183.367 42.54 183.639 42.54C183.911 42.54 184.127 42.616 184.287 42.768C184.455 42.912 184.539 43.112 184.539 43.368C184.539 43.616 184.455 43.816 184.287 43.968C184.127 44.112 183.911 44.184 183.639 44.184ZM182.955 45H184.323V51H182.955V45ZM185.843 46.56C185.843 45.816 185.827 45.296 185.795 45H187.067C187.107 45.376 187.127 45.728 187.127 46.056H187.151C187.303 45.696 187.563 45.412 187.931 45.204C188.299 44.988 188.707 44.88 189.155 44.88C189.851 44.88 190.375 45.112 190.727 45.576C191.079 46.032 191.255 46.712 191.255 47.616V51H189.887V47.604C189.887 47.044 189.795 46.632 189.611 46.368C189.435 46.104 189.151 45.972 188.759 45.972C188.295 45.972 187.919 46.136 187.631 46.464C187.343 46.784 187.199 47.2 187.199 47.712V51H185.843V46.56Z" fill="white"/>
<path d="M74.064 9.6H69.488L77.616 29.824C78.128 31.04 78.96 32.256 81.232 32.256C83.504 32.256 84.336 31.04 84.848 29.824L92.976 9.6H88.4L81.712 27.68C81.616 27.84 81.52 28.16 81.232 28.16C80.944 28.16 80.848 27.84 80.752 27.68L74.064 9.6ZM94.2533 32H97.9973V15.04H94.2533V32ZM97.9973 12.8V9.344H94.2533V12.8H97.9973ZM110.381 32V29.12H109.453C106.893 29.12 105.549 28.256 105.549 25.696V17.92H110.381V15.04H105.549V9.6H101.805V15.04H99.4688V17.92H101.805V26.464C101.805 30.656 104.205 32 108.045 32H110.381ZM127.143 32V29.12H118.855C115.623 29.12 115.207 27.328 115.207 24.768H125.063C126.983 24.768 127.687 23.488 127.687 21.568C127.687 16.128 124.295 14.848 119.527 14.848C113.767 14.848 111.335 16.736 111.335 23.488C111.335 28.96 112.295 32 117.735 32H127.143ZM115.207 21.888C115.207 18.976 116.327 17.728 119.527 17.728C121.767 17.728 123.815 18.656 123.815 20.896C123.815 21.376 123.719 21.888 122.983 21.888H115.207ZM129.904 32H143.984C147.408 32 148.784 29.568 148.784 26.24C148.784 22.752 147.344 21.344 144.112 20.32L135.92 17.728C134.128 17.12 133.968 16.224 133.968 15.2C133.968 13.568 134.8 12.96 135.856 12.96H147.632V9.6H134.736C131.184 9.6 129.616 11.808 129.616 15.008C129.616 18.08 130.48 19.968 133.424 20.896L142.256 23.68C144.208 24.288 144.432 25.344 144.432 26.208C144.432 26.976 144.336 28.64 142.32 28.64H129.904V32ZM165.078 17.92V15.04H157.974C152.214 15.04 150.71 18.4 150.71 23.488C150.71 28.608 152.214 32 157.974 32H165.462V29.12H158.902C154.966 29.12 154.582 26.688 154.582 23.488C154.582 20.288 154.966 17.92 158.902 17.92H165.078ZM168.427 15.04V17.92H176.715C178.283 17.92 179.083 18.72 179.083 20.352V21.44H171.403C168.491 21.44 167.179 23.52 167.179 26.72C167.179 30.272 168.491 32 171.403 32H179.947C181.867 32 182.827 31.04 182.827 29.12V20.032C182.827 17.12 181.259 15.04 178.059 15.04H168.427ZM179.083 24.32V28.16C179.083 28.8 178.763 29.12 178.123 29.12H172.843C171.563 29.12 171.051 28.352 171.051 26.72C171.051 25.088 171.563 24.32 172.843 24.32H179.083ZM185.785 32H189.529V18.88C189.529 18.24 189.849 17.92 190.489 17.92H193.913C196.473 17.92 197.465 19.264 197.465 21.824V32H201.208V20.832C201.208 16.352 198.457 15.04 194.617 15.04H188.665C186.745 15.04 185.785 16 185.785 17.92V32Z" fill="white"/>
</svg>
