<svg width="40" height="40" viewBox="0 0 40 40" fill="none" xmlns="http://www.w3.org/2000/svg">
<circle cx="20" cy="20" r="20" fill="white"/>
<path d="M25.2626 11.8299L22.2003 13.7487C21.8508 13.9677 21.9018 14.4918 22.287 14.6393L22.5586 14.7433C22.7045 14.7992 22.8682 14.7836 23.001 14.7012L25.3701 13.2308C25.522 13.1365 25.7128 13.1305 25.8703 13.2152L29.4571 15.1415C29.6193 15.2286 29.7205 15.3978 29.7205 15.582V19.6591C29.7205 19.8349 29.6281 19.9979 29.4772 20.0882L28.7911 20.4985C28.6401 20.5888 28.5477 20.7518 28.5477 20.9276V21.207C28.5477 21.6076 28.9952 21.8455 29.3273 21.6216L30.7795 20.6424C30.9173 20.5495 31 20.3941 31 20.2279V14.9303C31 14.7463 30.899 14.5772 30.737 14.49L25.7651 11.8133C25.6068 11.7281 25.415 11.7344 25.2626 11.8299Z" fill="#D6932C"/>
<path d="M25.2209 30.2416L25.1305 26.719C25.1204 26.3265 24.6593 26.112 24.3268 26.3451L24.0768 26.5205C23.9392 26.6169 23.8589 26.7719 23.8623 26.9343L23.9184 29.5893C23.9223 29.7749 23.8171 29.9487 23.6465 30.0382L20.0582 31.9209C19.8968 32.0055 19.7023 32.0014 19.5483 31.91L15.8889 29.7376C15.7422 29.6506 15.6531 29.4966 15.6525 29.3292L15.6497 28.5449C15.6491 28.3776 15.56 28.2236 15.4133 28.1365L15.1518 27.9812C14.8013 27.7732 14.3463 28.0394 14.3708 28.4382L14.4725 30.0942C14.4822 30.2515 14.5698 30.3933 14.708 30.4753L19.4524 33.2918C19.6062 33.3831 19.8005 33.3873 19.9618 33.3029L24.9485 30.6929C25.1201 30.6031 25.2256 30.4282 25.2209 30.2416Z" fill="#D6932C"/>
<path d="M8.94008 20.9089L12.2053 22.5529C12.5685 22.7358 12.9875 22.4571 12.9366 22.0663L12.8983 21.7714C12.8771 21.6089 12.774 21.4654 12.6232 21.3887L10.1718 20.1414C9.99948 20.0537 9.89138 19.8801 9.89281 19.6934L9.92271 15.7848C9.92405 15.6091 10.0223 15.4493 10.1804 15.3659L13.9534 13.374C14.104 13.2946 14.2876 13.2955 14.4407 13.3766L15.1595 13.7573C15.3126 13.8384 15.4963 13.8393 15.6468 13.7598L15.917 13.6172C16.2779 13.4267 16.2551 12.9162 15.878 12.7417L14.3171 12.0197C14.1689 11.9511 13.9971 11.9548 13.8552 12.0297L8.96422 14.6118C8.80628 14.6951 8.70806 14.8546 8.70653 15.0302L8.65911 20.4594C8.65747 20.6471 8.76649 20.8215 8.94008 20.9089Z" fill="#D6932C"/>
<path d="M19.8942 12.5049L26.3675 16.0734L19.8553 19.7439L13.3964 16.0734L19.8942 12.5049Z" fill="#D6932C"/>
<path d="M18.6773 21.546L18.6773 28.8179L12.1003 25.3004L12.1003 18.1125L18.6773 21.546Z" fill="#D6932C"/>
<path d="M27.6029 25.3844L27.6029 18.1125L21.0259 21.732L21.0259 28.8689L27.6029 25.3844Z" fill="#D6932C"/>
</svg>
