<svg width="40" height="40" viewBox="0 0 40 40" fill="none" xmlns="http://www.w3.org/2000/svg">
<circle cx="20" cy="20" r="20" fill="white"/>
<path fill-rule="evenodd" clip-rule="evenodd" d="M27 11H22.82C22.4 9.84 21.3 9 20 9C18.7 9 17.6 9.84 17.18 11H13C11.9 11 11 11.9 11 13V29C11 30.1 11.9 31 13 31H27C28.1 31 29 30.1 29 29V13C29 11.9 28.1 11 27 11ZM20 11C20.55 11 21 11.45 21 12C21 12.55 20.55 13 20 13C19.45 13 19 12.55 19 12C19 11.45 19.45 11 20 11ZM13 13V29H27V13H25V16H15V13H13Z" fill="#E12626"/>
</svg>
