<svg width="26" height="26" viewBox="0 0 26 26" fill="none" xmlns="http://www.w3.org/2000/svg">
<path fill-rule="evenodd" clip-rule="evenodd" d="M12.9875 8.3722C14.1334 8.3722 15.0709 7.4347 15.0709 6.28887C15.0709 5.14304 14.1334 4.20554 12.9875 4.20554C11.8417 4.20554 10.9042 5.14304 10.9042 6.28887C10.9042 7.4347 11.8417 8.3722 12.9875 8.3722ZM12.9875 10.4555C11.8417 10.4555 10.9042 11.393 10.9042 12.5389C10.9042 13.6847 11.8417 14.6222 12.9875 14.6222C14.1334 14.6222 15.0709 13.6847 15.0709 12.5389C15.0709 11.393 14.1334 10.4555 12.9875 10.4555ZM10.9042 18.7889C10.9042 17.643 11.8417 16.7055 12.9875 16.7055C14.1334 16.7055 15.0709 17.643 15.0709 18.7889C15.0709 19.9347 14.1334 20.8722 12.9875 20.8722C11.8417 20.8722 10.9042 19.9347 10.9042 18.7889Z" fill="white"/>
</svg>
