<svg width="35" height="35" viewBox="0 0 35 35" fill="none" xmlns="http://www.w3.org/2000/svg">
<path d="M27.0663 2.50005L22.3406 5.461C21.9911 5.68 22.0422 6.20415 22.4273 6.35164L23.2747 6.6761C23.4207 6.73199 23.5844 6.71641 23.7172 6.63398L27.2164 4.46215C27.3683 4.36784 27.5591 4.36187 27.7166 4.44648L32.9453 7.25464C33.1076 7.34176 33.2088 7.511 33.2088 7.69513V13.6361C33.2088 13.812 33.1164 13.9749 32.9654 14.0652L31.8102 14.7561C31.6592 14.8464 31.5668 15.0094 31.5668 15.1852V16.0659C31.5668 16.4664 32.0143 16.7044 32.3463 16.4805L34.7795 14.8399C34.9174 14.747 35 14.5916 35 14.4253V6.7829C35 6.59894 34.899 6.42985 34.737 6.34265L27.5688 2.4835C27.4105 2.39828 27.2186 2.4046 27.0663 2.50005Z" fill="white"/>
<path d="M26.9124 28.4602L26.7733 23.0383C26.7632 22.6458 26.3021 22.4313 25.9696 22.6644L25.2196 23.1904C25.082 23.2869 25.0017 23.4418 25.0051 23.6043L25.0884 27.5462C25.0923 27.7318 24.987 27.9056 24.8164 27.9951L19.5771 30.744C19.4157 30.8287 19.2212 30.8246 19.0672 30.7331L13.7503 27.5769C13.6036 27.4898 13.5145 27.3358 13.5139 27.1684L13.5093 25.8555C13.5087 25.6881 13.4196 25.5342 13.2729 25.4471L12.4767 24.9744C12.1261 24.7663 11.6711 25.0326 11.6956 25.4314L11.8677 28.2321C11.8774 28.3894 11.965 28.5312 12.1032 28.6133L18.9329 32.6676C19.0867 32.7589 19.281 32.7632 19.4423 32.6787L26.64 28.9115C26.8116 28.8217 26.9172 28.6468 26.9124 28.4602Z" fill="white"/>
<path d="M4.00266 15.2153L9.02755 17.7453C9.39082 17.9282 9.80978 17.6495 9.75892 17.2587L9.64403 16.376C9.62287 16.2134 9.51981 16.07 9.36903 15.9933L5.728 14.1407C5.55568 14.053 5.44758 13.8794 5.44901 13.6927L5.49267 7.98506C5.49401 7.80933 5.59227 7.64961 5.75036 7.56614L11.2314 4.6726C11.382 4.59311 11.5656 4.59408 11.7187 4.67516L12.9216 5.31221C13.0747 5.3933 13.2584 5.39426 13.4089 5.31477L14.2301 4.88126C14.591 4.69075 14.5682 4.18022 14.191 4.00575L11.5496 2.78381C11.4013 2.71523 11.2296 2.71896 11.0877 2.79385L4.04783 6.51033C3.8899 6.5937 3.79167 6.75319 3.79014 6.92873L3.72169 14.7658C3.72005 14.9535 3.82907 15.1279 4.00266 15.2153Z" fill="white"/>
<path d="M19.4519 3.50693L28.5146 8.50278L19.3975 13.6414L10.3549 8.50278L19.4519 3.50693Z" fill="white"/>
<path d="M17.7482 16.1645L17.7482 26.3452L8.54041 21.4207L8.54041 11.3575L17.7482 16.1645Z" fill="white"/>
<path d="M30.2441 21.5382L30.2441 11.3575L21.0362 16.4248L21.0362 26.4166L30.2441 21.5382Z" fill="white"/>
</svg>
